<?xml version="1.0" standalone="no"?><!DOCTYPE svg PUBLIC "-//W3C//DTD SVG 1.1//EN"
        "http://www.w3.org/Graphics/SVG/1.1/DTD/svg11.dtd">
<svg t="1670552383368" class="icon" viewBox="0 0 1024 1024" version="1.1" xmlns="http://www.w3.org/2000/svg" p-id="2855"
     width="16" height="16">
    <path d="M511.999488 63.791885c-245.951645 0-447.184809 201.233164-447.184809 447.184809 0 245.951645 201.233164 447.184809 447.184809 447.184809 245.951645 0 447.184809-201.233164 447.184809-447.184809C959.184297 265.025049 757.95011 63.791885 511.999488 63.791885zM511.999488 868.724541c-196.73471 0-357.747847-160.969135-357.747847-357.747847 0-196.778712 161.013137-357.747847 357.747847-357.747847 196.73471 0 357.747847 160.969135 357.747847 357.747847C869.746312 707.755406 708.734198 868.724541 511.999488 868.724541z"
          p-id="2856" fill="#d81e06"></path>
    <path d="M534.357705 287.384289l-67.077721 0 0 268.310885 232.54531 143.107325 35.765575-58.124815-201.233164-120.749108L534.357705 287.384289z"
          p-id="2857" fill="#d81e06"></path>
</svg>